<svg width="4" height="7" viewBox="0 0 4 7" fill="none" xmlns="http://www.w3.org/2000/svg">
<path d="M2.88557 2.23703L0.781825 0.13328C0.69595 0.0479149 0.579784 0 0.458699 0C0.337614 0 0.221449 0.0479149 0.135574 0.13328C0.0926154 0.175888 0.0585181 0.22658 0.0352491 0.282432C0.0119801 0.338284 0 0.398191 0 0.458697C0 0.519202 0.0119801 0.579109 0.0352491 0.634961C0.0585181 0.690813 0.0926154 0.741505 0.135574 0.784113L2.24391 2.88328C2.28687 2.92589 2.32096 2.97658 2.34423 3.03243C2.3675 3.08828 2.37948 3.14819 2.37948 3.2087C2.37948 3.2692 2.3675 3.32911 2.34423 3.38496C2.32096 3.44081 2.28687 3.49151 2.24391 3.53411L0.135574 5.63328C0.0492684 5.71898 0.000540794 5.83545 0.000111024 5.95708C-0.000318747 6.0787 0.0475849 6.19552 0.133283 6.28182C0.218981 6.36813 0.335454 6.41686 0.457079 6.41729C0.578704 6.41772 0.695519 6.36981 0.781825 6.28411L2.88557 4.18036C3.14307 3.92255 3.2877 3.57307 3.2877 3.2087C3.2877 2.84432 3.14307 2.49484 2.88557 2.23703Z" fill="black"/>
</svg>
