<svg width="29" height="29" viewBox="0 0 29 29" fill="none" xmlns="http://www.w3.org/2000/svg">
<g opacity="0.15" clip-path="url(#clip0_310_568)">
<path d="M27.7917 13.2917H1.20833C0.540989 13.2917 0 13.8327 0 14.5001C0 15.1674 0.540989 15.7084 1.20833 15.7084H27.7917C28.459 15.7084 29 15.1674 29 14.5001C29 13.8327 28.459 13.2917 27.7917 13.2917Z" fill="black"/>
<path d="M27.7917 4.83325H1.20833C0.540989 4.83325 0 5.37424 0 6.04159C0 6.70893 0.540989 7.24992 1.20833 7.24992H27.7917C28.459 7.24992 29 6.70893 29 6.04159C29 5.37424 28.459 4.83325 27.7917 4.83325Z" fill="black"/>
<path d="M27.7917 21.75H1.20833C0.540989 21.75 0 22.291 0 22.9583C0 23.6257 0.540989 24.1667 1.20833 24.1667H27.7917C28.459 24.1667 29 23.6257 29 22.9583C29 22.291 28.459 21.75 27.7917 21.75Z" fill="black"/>
</g>
<defs>
<clipPath id="clip0_310_568">
<rect width="29" height="29" fill="white"/>
</clipPath>
</defs>
</svg>
