<svg width="28" height="27" viewBox="0 0 28 27" fill="#fff" xmlns="http://www.w3.org/2000/svg">
<g clip-path="url(#clip0_310_947)">
<path d="M8.34125 14.625H6.125V21.375H7.25V19.125H8.34125C9.59 19.125 10.6025 18.09 10.6025 16.8525C10.6025 15.615 9.59 14.625 8.34125 14.625ZM8.34125 18H7.25V15.75H8.34125C8.97125 15.75 9.4775 16.245 9.4775 16.8525C9.4775 17.46 8.96 18 8.34125 18ZM14 14.625C13.9325 14.625 11.75 14.625 11.75 14.625V21.375C11.75 21.375 13.9325 21.375 14 21.375C15.2488 21.375 16.25 20.3738 16.25 19.1475V16.8638C16.25 15.6375 15.2488 14.6363 14 14.6363V14.625ZM15.125 19.1475C15.125 19.7437 14.6413 20.2275 14.045 20.25H12.875V15.75H14.045C14.6413 15.7725 15.125 16.2675 15.125 16.8525V19.1362V19.1475ZM17.375 14.625H21.875V15.75H18.5V18H20.75V19.125H18.5V21.375H17.375V14.625ZM17.0488 0H5.5625C4.01 0 2.75 1.26 2.75 2.8125V27H25.25V8.20125L17.0488 0ZM17.375 1.92375L23.3263 7.875H17.375V1.92375ZM3.875 25.875V2.8125C3.875 1.87875 4.62875 1.125 5.5625 1.125H16.25V9H24.125V25.875H3.875Z" fill="#E31E24"/>
</g>
<defs>
<clipPath id="clip0_310_947">
<rect width="27" height="27" fill="white" transform="translate(0.5)"/>
</clipPath>
</defs>
</svg>
