<svg width="57" height="57" viewBox="0 0 57 57" fill="none" xmlns="http://www.w3.org/2000/svg">
<g clip-path="url(#clip0_96_2503)">
<path d="M19 30.875C19 36.1143 23.2607 40.375 28.5 40.375C33.7393 40.375 38 36.1143 38 30.875C38 25.6357 33.7393 21.375 28.5 21.375C23.2607 21.375 19 25.6357 19 30.875ZM28.5 23.75C32.4283 23.75 35.625 26.9467 35.625 30.875C35.625 34.8033 32.4283 38 28.5 38C24.5717 38 21.375 34.8033 21.375 30.875C21.375 26.9467 24.5717 23.75 28.5 23.75ZM42.75 19C47.9893 19 52.25 14.7393 52.25 9.5C52.25 4.26075 47.9893 0 42.75 0C37.5107 0 33.25 4.26075 33.25 9.5C33.25 14.7393 37.5107 19 42.75 19ZM42.75 2.375C46.6783 2.375 49.875 5.57175 49.875 9.5C49.875 13.4283 46.6783 16.625 42.75 16.625C38.8217 16.625 35.625 13.4283 35.625 9.5C35.625 5.57175 38.8217 2.375 42.75 2.375ZM57 29.6875V35.625H54.625V29.6875C54.625 27.7234 53.0266 26.125 51.0625 26.125H41.9211C41.6266 25.2961 41.2633 24.5005 40.8263 23.75H51.0601C54.3353 23.75 57 26.4124 57 29.6875ZM42.75 51.0625V57H40.375V51.0625C40.375 49.0984 38.7766 47.5 36.8125 47.5H20.1875C18.2234 47.5 16.625 49.0984 16.625 51.0625V57H14.25V51.0625C14.25 47.7874 16.9124 45.125 20.1875 45.125H36.8125C40.0876 45.125 42.75 47.7874 42.75 51.0625ZM14.25 19C19.4893 19 23.75 14.7393 23.75 9.5C23.75 4.26075 19.4893 0 14.25 0C9.01075 0 4.75 4.26075 4.75 9.5C4.75 14.7393 9.01075 19 14.25 19ZM14.25 2.375C18.1783 2.375 21.375 5.57175 21.375 9.5C21.375 13.4283 18.1783 16.625 14.25 16.625C10.3217 16.625 7.125 13.4283 7.125 9.5C7.125 5.57175 10.3217 2.375 14.25 2.375ZM5.9375 26.125C3.97337 26.125 2.375 27.7234 2.375 29.6875V35.625H0V29.6875C0 26.4124 2.66238 23.75 5.9375 23.75H16.1714C15.7368 24.5005 15.371 25.2961 15.0765 26.125H5.9375Z" fill="white" fill-opacity="0.4"/>
</g>
<defs>
<clipPath id="clip0_96_2503">
<rect width="57" height="57" fill="white"/>
</clipPath>
</defs>
</svg>
