<svg width="23" height="23" viewBox="0 0 23 23" fill="none" xmlns="http://www.w3.org/2000/svg">
<path d="M13.6019 11.2L22.4122 2.39061C22.9591 1.84372 22.9591 0.957026 22.4122 0.410173C21.8653 -0.136724 20.9786 -0.136724 20.4317 0.410173L11.6223 9.22046L2.81298 0.410173C2.26608 -0.136724 1.37939 -0.136724 0.832536 0.410173C0.285683 0.957069 0.285639 1.84376 0.832536 2.39061L9.64282 11.2L0.832536 20.0094C0.285639 20.5563 0.285639 21.443 0.832536 21.9898C1.37943 22.5367 2.26612 22.5367 2.81298 21.9898L11.6223 13.1795L20.4317 21.9898C20.9786 22.5367 21.8653 22.5367 22.4121 21.9898C22.959 21.4429 22.959 20.5562 22.4121 20.0094L13.6019 11.2Z" fill="#DDDDDD"/>
</svg>
