<svg width="23" height="23" viewBox="0 0 23 23" fill="none" xmlns="http://www.w3.org/2000/svg">
<g clip-path="url(#clip0_86_1434)">
<path fill-rule="evenodd" clip-rule="evenodd" d="M11.5 23C17.8513 23 23 17.8513 23 11.5C23 5.14873 17.8513 0 11.5 0C5.14873 0 0 5.14873 0 11.5C0 17.8513 5.14873 23 11.5 23ZM5.75 9.06011C5.75 7.23483 7.23502 5.75 9.06011 5.75H13.9399C15.7652 5.75 17.25 7.23502 17.25 9.06011V13.9846C17.25 15.8097 15.7652 17.2948 13.9399 17.2948H9.06011C7.23483 17.2948 5.75 15.8097 5.75 13.9846V9.06011ZM8.50731 11.5012C8.50731 9.86348 9.85407 8.53121 11.5091 8.53121C13.1642 8.53121 14.511 9.86348 14.511 11.5012C14.511 13.1388 13.1642 14.4711 11.5091 14.4711C9.85389 14.4711 8.50731 13.1388 8.50731 11.5012ZM9.60071 11.5012C9.60071 12.5358 10.4567 13.3777 11.5091 13.3777C12.5615 13.3777 13.4176 12.5359 13.4176 11.5012C13.4176 10.4665 12.5613 9.62479 11.5091 9.62479C10.4567 9.62479 9.60071 10.4665 9.60071 11.5012ZM14.5647 9.11617C14.9548 9.11617 15.271 8.79994 15.271 8.40986C15.271 8.0198 14.9548 7.70357 14.5647 7.70357C14.1746 7.70357 13.8584 8.0198 13.8584 8.40986C13.8584 8.79994 14.1746 9.11617 14.5647 9.11617Z" fill="#DE1B21"/>
</g>
<defs>
<clipPath id="clip0_86_1434">
<rect width="23" height="23" fill="white"/>
</clipPath>
</defs>
</svg>
