<svg width="23" height="23" viewBox="0 0 23 23" fill="none" xmlns="http://www.w3.org/2000/svg">
<g clip-path="url(#clip0_86_1436)">
<path fill-rule="evenodd" clip-rule="evenodd" d="M11.5 23C17.8512 23 23 17.8512 23 11.5C23 5.14878 17.8512 0 11.5 0C5.14878 0 0 5.14878 0 11.5C0 17.8512 5.14878 23 11.5 23ZM16.5547 7.34712C16.6435 6.33972 15.5795 6.75464 15.5795 6.75464C14.7941 7.07986 13.984 7.41014 13.1652 7.7441C10.626 8.77979 8.00308 9.84975 5.76863 10.9029C4.55699 11.3473 5.26631 11.7916 5.26631 11.7916L7.18704 12.3844C8.07369 12.6512 8.54634 12.3547 8.54634 12.3547L12.6836 9.53994C14.1611 8.53254 13.8064 9.36215 13.4518 9.71773L10.3491 12.6806C9.8762 13.0955 10.1126 13.4511 10.3194 13.6289C10.9059 14.1462 12.348 15.0926 12.9775 15.5057C13.1413 15.6131 13.2501 15.6846 13.2747 15.703C13.4223 15.8215 14.2202 16.3548 14.7522 16.2364C15.2842 16.1177 15.3433 15.4362 15.3433 15.4362L16.0524 10.7842C16.1587 9.97671 16.2808 9.20046 16.3783 8.58038C16.4703 7.9948 16.5405 7.54883 16.5547 7.34712Z" fill="#DE1B21"/>
</g>
<defs>
<clipPath id="clip0_86_1436">
<rect width="23" height="23" fill="white"/>
</clipPath>
</defs>
</svg>
