<svg width="38" height="38" viewBox="0 0 38 38" fill="none" xmlns="http://www.w3.org/2000/svg">
<path d="M13.4583 0H7.125C3.19675 0 0 3.19675 0 7.125V13.4583C0 14.7678 1.06558 15.8333 2.375 15.8333H13.4583C14.7678 15.8333 15.8333 14.7678 15.8333 13.4583V2.375C15.8333 1.06558 14.7678 0 13.4583 0ZM14.25 13.4583C14.25 13.8953 13.8953 14.25 13.4583 14.25H2.375C1.938 14.25 1.58333 13.8953 1.58333 13.4583V7.125C1.58333 4.06917 4.06917 1.58333 7.125 1.58333H13.4583C13.8953 1.58333 14.25 1.938 14.25 2.375V13.4583ZM21.375 15.8333H32.4583C33.7677 15.8333 34.8333 14.7678 34.8333 13.4583V7.125C34.8333 3.19675 31.6366 0 27.7083 0H21.375C20.0656 0 19 1.06558 19 2.375V13.4583C19 14.7678 20.0656 15.8333 21.375 15.8333ZM20.5833 2.375C20.5833 1.938 20.938 1.58333 21.375 1.58333H27.7083C30.7642 1.58333 33.25 4.06917 33.25 7.125V13.4583C33.25 13.8953 32.8953 14.25 32.4583 14.25H21.375C20.938 14.25 20.5833 13.8953 20.5833 13.4583V2.375ZM13.4583 19H2.375C1.06558 19 0 20.0656 0 21.375V27.7083C0 31.6366 3.19675 34.8333 7.125 34.8333H13.4583C14.7678 34.8333 15.8333 33.7677 15.8333 32.4583V21.375C15.8333 20.0656 14.7678 19 13.4583 19ZM14.25 32.4583C14.25 32.8953 13.8953 33.25 13.4583 33.25H7.125C4.06917 33.25 1.58333 30.7642 1.58333 27.7083V21.375C1.58333 20.938 1.938 20.5833 2.375 20.5833H13.4583C13.8953 20.5833 14.25 20.938 14.25 21.375V32.4583ZM37.7688 36.6478L33.0188 31.8978C34.1351 30.533 34.8333 28.8135 34.8333 26.9167C34.8333 22.5514 31.2819 19 26.9167 19C22.5514 19 19 22.5514 19 26.9167C19 31.2819 22.5514 34.8333 26.9167 34.8333C28.8135 34.8333 30.533 34.1351 31.8978 33.0188L36.6478 37.7688C36.803 37.924 37.0057 38 37.2083 38C37.411 38 37.6137 37.9224 37.7688 37.7688C38.0776 37.4601 38.0776 36.9566 37.7688 36.6478ZM26.9167 33.25C23.4238 33.25 20.5833 30.4095 20.5833 26.9167C20.5833 23.4238 23.4238 20.5833 26.9167 20.5833C30.4095 20.5833 33.25 23.4238 33.25 26.9167C33.25 30.4095 30.4095 33.25 26.9167 33.25Z" fill="black" fill-opacity="0.3"/>
</svg>
