<svg width="112" height="112" viewBox="0 0 112 112" fill="none" xmlns="http://www.w3.org/2000/svg">
<g clip-path="url(#clip0_579_729)">
<path d="M56 112C25.1207 112 0 86.8793 0 56C0 25.1207 25.1207 0 56 0C86.8793 0 112 25.1207 112 56C112 86.8793 86.8793 112 56 112ZM56 4.66667C27.6967 4.66667 4.66667 27.6967 4.66667 56C4.66667 84.3033 27.6967 107.333 56 107.333C84.3033 107.333 107.333 84.3033 107.333 56C107.333 27.6967 84.3033 4.66667 56 4.66667ZM35 88.6667C28.5693 88.6667 23.3333 83.4353 23.3333 77C23.3333 71.2087 27.8507 63.7607 30.884 60.1673C31.864 59.0053 33.2967 58.338 34.8087 58.3333H34.818C36.3253 58.3333 37.7487 58.9913 38.7333 60.144C41.678 63.5833 46.662 71.008 46.662 77C46.662 83.4353 41.4307 88.6667 35 88.6667ZM34.4493 63.1727C31.7707 66.346 28 72.7347 28 77C28 80.8593 31.1407 84 35 84C38.8593 84 42 80.8593 42 77C42 72.6927 37.926 66.374 35.1913 63.1727H34.4493ZM83.482 78.4653C84.2893 77.4667 84.14 76.0013 83.1413 75.1893C82.6467 74.7833 70.8307 65.3333 56.0047 65.3333C55.16 65.3333 54.3293 65.3613 53.5033 65.422C52.22 65.5153 51.2493 66.6307 51.3427 67.914C51.4313 69.1973 52.514 70.1587 53.8347 70.0793C54.5487 70.028 55.272 70 56 70C69.1367 70 80.0893 78.7267 80.2013 78.8153C80.6353 79.1607 81.1487 79.3333 81.662 79.3333C82.3433 79.3333 83.0153 79.0393 83.482 78.4653Z" fill="black" fill-opacity="0.1"/>
<path d="M37.3337 51.3333C39.911 51.3333 42.0003 49.244 42.0003 46.6667C42.0003 44.0893 39.911 42 37.3337 42C34.7563 42 32.667 44.0893 32.667 46.6667C32.667 49.244 34.7563 51.3333 37.3337 51.3333Z" fill="black" fill-opacity="0.1"/>
<path d="M74.6667 51.3333C77.244 51.3333 79.3333 49.244 79.3333 46.6667C79.3333 44.0893 77.244 42 74.6667 42C72.0893 42 70 44.0893 70 46.6667C70 49.244 72.0893 51.3333 74.6667 51.3333Z" fill="black" fill-opacity="0.1"/>
</g>
<defs>
<clipPath id="clip0_579_729">
<rect width="112" height="112" fill="white"/>
</clipPath>
</defs>
</svg>
