<svg width="37" height="37" viewBox="0 0 26 26" fill="none" xmlns="http://www.w3.org/2000/svg">
<g clip-path="url(#clip0_96_1876)">
<path d="M21.125 2.16669H8.125C5.4275 2.16669 3.25 4.34419 3.25 7.04169V16.7917C3.25 19.4892 5.4275 21.6667 8.125 21.6667H21.125C23.8225 21.6667 26 19.4892 26 16.7917V7.04169C26 4.34419 23.8225 2.16669 21.125 2.16669ZM21.125 3.25002C22.1542 3.25002 23.0967 3.66169 23.7792 4.33335L17.3117 10.8009C15.8275 12.285 13.4333 12.285 11.9492 10.8009L5.47083 4.33335C6.15333 3.66169 7.09583 3.25002 8.125 3.25002H21.125ZM24.9167 16.7917C24.9167 18.8825 23.2158 20.5834 21.125 20.5834H8.125C6.03417 20.5834 4.33333 18.8825 4.33333 16.7917V7.04169C4.33333 6.37002 4.50667 5.75252 4.81 5.20002L11.18 11.57C12.1333 12.5234 13.3792 13 14.625 13C15.8708 13 17.1167 12.5234 18.07 11.57L24.44 5.20002C24.7433 5.74169 24.9167 6.37002 24.9167 7.04169V16.7917ZM19.5 24.375C19.5 24.6784 19.2617 24.9167 18.9583 24.9167H4.875C2.18833 24.9167 0 22.7284 0 20.0417V8.12502C0 7.82169 0.238333 7.58335 0.541667 7.58335C0.845 7.58335 1.08333 7.82169 1.08333 8.12502V20.0417C1.08333 22.1325 2.78417 23.8334 4.875 23.8334H18.9583C19.2617 23.8334 19.5 24.0717 19.5 24.375Z" fill="#898989"/>
</g>
<defs>
<clipPath id="clip0_96_1876">
<rect width="37" height="37" fill="white"/>
</clipPath>
</defs>
</svg>
