<svg width="34" height="34" viewBox="0 0 34 34" fill="none" xmlns="http://www.w3.org/2000/svg">
<rect width="34" height="34" rx="17" fill="#767676"/>
<path d="M21.7002 13.0654L19.6401 10.9435C18.8578 10.1388 17.8183 9.69568 16.7132 9.69568H14.0434C12.4132 9.69568 11.0869 11.061 11.0869 12.7392V21.2609C11.0869 22.9391 12.4132 24.3044 14.0434 24.3044H19.9565C21.5867 24.3044 22.913 22.9391 22.913 21.2609V16.0779C22.913 14.939 22.4819 13.8701 21.7002 13.0654ZM20.8641 13.9267C21.0522 14.1197 21.2112 14.3345 21.3401 14.5659H18.7733C18.4469 14.5659 18.182 14.2925 18.182 13.9572V11.3142C18.4067 11.4469 18.6154 11.6106 18.8034 11.8042L20.8635 13.9261L20.8641 13.9267ZM21.7304 21.2615C21.7304 22.2683 20.9345 23.0876 19.9565 23.0876H14.0434C13.0654 23.0876 12.2695 22.2683 12.2695 21.2615V12.7392C12.2695 11.7324 13.0654 10.9131 14.0434 10.9131H16.7132C16.8096 10.9131 16.9053 10.9179 17 10.9271V13.9565C17 14.9633 17.7959 15.7826 18.7739 15.7826H21.7168C21.7257 15.88 21.7304 15.9786 21.7304 16.0779V21.2615ZM19.1919 19.4993C19.4231 19.7367 19.4231 20.122 19.1919 20.36L18.2381 21.3425C17.897 21.6937 17.4482 21.8696 17 21.8696C16.5517 21.8696 16.1029 21.6937 15.7618 21.3425L14.808 20.36C14.5768 20.122 14.5768 19.7367 14.808 19.4993C15.0392 19.2613 15.4129 19.2613 15.6441 19.4993L16.4087 20.2864V17.6093C16.4087 17.2733 16.673 17.0006 17 17.0006C17.3269 17.0006 17.5913 17.2733 17.5913 17.6093V20.2864L18.3558 19.4993C18.587 19.2613 18.9607 19.2613 19.1919 19.4993Z" fill="white"/>
</svg>
