<svg width="46" height="46" viewBox="0 0 46 46" fill="none" xmlns="http://www.w3.org/2000/svg">
<g clip-path="url(#clip0_163_2530)">
<path fill-rule="evenodd" clip-rule="evenodd" d="M23 46C35.7024 46 46 35.7024 46 23C46 10.2976 35.7024 0 23 0C10.2976 0 0 10.2976 0 23C0 35.7024 10.2976 46 23 46ZM31.234 15.008C32.9995 15.1671 33.994 16.2477 34.212 17.9694C34.3648 19.171 34.5 20.8914 34.5 22.7419C34.5 25.9914 34.212 27.87 34.212 27.87C33.9416 29.5849 33.1126 30.5159 31.3692 30.7128C29.4211 30.9336 25.0396 31.0348 23.0929 31.0348C21.0781 31.0348 17.0039 30.9502 14.9693 30.7809C13.2213 30.6351 12.0281 29.6585 11.788 27.9206C11.6132 26.6547 11.5 25.1505 11.5 22.7585C11.5 20.096 11.5961 18.969 11.822 17.7661C12.1435 16.0494 12.9628 15.2177 14.8341 15.0245C16.7974 14.8217 18.653 14.72 22.8054 14.72C24.8354 14.72 29.2123 14.8249 31.234 15.008ZM20.5546 19.498V26.1101L26.8502 22.77L20.5546 19.498Z" fill="#DE1B21"/>
</g>
<defs>
<clipPath id="clip0_163_2530">
<rect width="46" height="46" fill="white"/>
</clipPath>
</defs>
</svg>
