<svg width="46" height="46" viewBox="0 0 46 46" fill="none" xmlns="http://www.w3.org/2000/svg">
<path fill-rule="evenodd" clip-rule="evenodd" d="M23 46C35.7025 46 46 35.7025 46 23C46 10.2975 35.7025 0 23 0C10.2975 0 0 10.2975 0 23C0 35.7025 10.2975 46 23 46ZM33.58 31.7399V24.087C33.58 19.9877 31.391 18.08 28.4704 18.08C26.1136 18.08 25.0607 19.3772 24.471 20.2854V18.3937H20.0335C20.0932 19.6465 20.0335 31.7399 20.0335 31.7399H24.4718V24.2865C24.4718 23.8875 24.502 23.4903 24.6191 23.2049C24.9402 22.4068 25.6697 21.5818 26.8957 21.5818C28.5013 21.5818 29.1432 22.8059 29.1432 24.5995V31.7399H33.58ZM24.471 20.2854V20.3286H24.442C24.4451 20.3235 24.4488 20.3181 24.4525 20.3127C24.4588 20.3036 24.4654 20.2942 24.471 20.2854ZM12.88 14.2657C12.88 12.9558 13.8728 11.96 15.3912 11.96C16.9099 11.96 17.8431 12.9558 17.8722 14.2657C17.8722 15.5468 16.9099 16.5728 15.3621 16.5728H15.3326C13.8445 16.5728 12.88 15.5468 12.88 14.2657ZM17.5801 31.7399H13.1437V18.3937H17.5801V31.7399Z" fill="#DE1B21"/>
</svg>
