<svg width="52" height="42" viewBox="0 0 52 42" fill="none" xmlns="http://www.w3.org/2000/svg">
<path fill-rule="evenodd" clip-rule="evenodd" d="M31.4735 0.79745C29.9485 0.365801 28.2404 0.0897505 26.8067 0.0395944C26.3899 0.0295632 25.9628 0.00950118 25.8662 0.00444728C25.4799 -0.0205925 23.8226 0.0647107 23.1973 0.14496C20.7215 0.461135 18.6169 1.07848 16.4614 2.13237C13.6349 3.51254 11.2455 5.40959 9.29336 7.82352C8.83583 8.39568 8.02246 9.50976 8.02246 9.575C8.02246 9.59008 8.35801 9.60517 8.77488 9.60517H9.52217L9.82716 9.18861C10.5033 8.27017 11.82 6.8449 12.6384 6.15229L12.9079 5.92647L13.8586 6.15734C15.3989 6.52872 17.4121 6.89505 18.7999 7.05065C19.0948 7.08075 19.3489 7.12593 19.3693 7.14101C19.3947 7.16107 19.3439 7.39195 19.2574 7.65291C19.0388 8.34047 18.7491 9.40439 18.7491 9.51481C18.7491 9.59514 18.805 9.60517 19.3794 9.60517H20.0047L20.142 9.09825C20.3148 8.46092 20.6809 7.33168 20.7215 7.29156C20.7419 7.27149 21.113 7.2865 21.5451 7.32165C23.2329 7.46216 25.7595 7.51737 27.554 7.45719C28.4894 7.42204 29.5723 7.37188 29.9535 7.34171C30.3399 7.31162 30.6754 7.30664 30.6958 7.33168C30.7364 7.37686 30.9855 8.12468 31.1482 8.67671C31.1733 8.77066 31.207 8.88905 31.2395 9.00353L31.2398 9.00452C31.2733 9.12199 31.3055 9.23539 31.3261 9.31403L31.4126 9.60517H32.0429C32.5208 9.60517 32.6784 9.59009 32.6784 9.53993C32.6784 9.4596 32.3734 8.37554 32.1751 7.72818C32.0887 7.45719 32.0175 7.21628 32.0175 7.19622C32.0175 7.18114 32.3327 7.12593 32.7191 7.07577C34.4272 6.87002 36.1404 6.56387 37.696 6.18743L38.5653 5.97165L38.9212 6.28277C39.7498 7.01053 41.0106 8.39568 41.6562 9.27896L41.8901 9.60517H42.6221C43.1254 9.60517 43.3542 9.59009 43.3542 9.54996C43.3542 9.51987 43.222 9.30906 43.0644 9.08324C40.1769 4.998 36.1607 2.12234 31.4735 0.79745ZM12.5571 35.1601C11.759 34.4775 10.3457 32.9268 9.70005 32.0235L9.53235 31.7876H8.77488C8.18005 31.7876 8.02246 31.8027 8.05294 31.8478C8.69348 32.9268 10.1576 34.6632 11.3269 35.7373C14.7278 38.8589 18.6474 40.6656 23.2989 41.2578C24.1937 41.3682 26.9287 41.3832 27.8743 41.2829C33.6036 40.6556 38.7839 37.8049 42.2917 33.3433C42.6831 32.8465 43.3542 31.8929 43.3542 31.8277C43.3542 31.8076 43.0238 31.7876 42.6221 31.7876H41.8951L41.4529 32.3597C41.2139 32.6759 40.7666 33.2128 40.4615 33.5592C39.9329 34.1464 38.8348 35.2254 38.5907 35.3859C38.489 35.4512 38.4027 35.4412 37.6757 35.2555C36.2726 34.9041 34.4221 34.5579 32.9326 34.3722C32.5818 34.3321 32.226 34.2818 32.1345 34.2668L31.9717 34.2417L32.0989 33.8803C32.2361 33.4889 32.6784 31.9231 32.6784 31.8378C32.6784 31.8027 32.4649 31.7876 32.0379 31.7976L31.3973 31.8127L31.2296 32.4149C31.1381 32.7461 30.9855 33.253 30.889 33.5441L30.7161 34.0711H30.3857C30.2077 34.0711 29.5469 34.0359 28.9165 33.9958C26.9084 33.8653 22.6279 33.9104 20.9859 34.0761L20.7012 34.1062L20.4877 33.4387L20.4652 33.3642C20.3556 33.0002 20.2133 32.5277 20.142 32.2744L20.0047 31.7876H19.3794C18.8101 31.7876 18.7491 31.7976 18.7491 31.8779C18.7491 31.9883 19.049 33.0623 19.2574 33.7097C19.3439 33.9858 19.41 34.2116 19.3998 34.2166C19.3896 34.2216 18.9727 34.2768 18.4695 34.337C16.8427 34.5328 15.2668 34.8188 13.6756 35.2053L12.8469 35.406L12.5571 35.1601ZM31.4126 35.7674C31.2244 36.2391 30.5941 37.4737 30.2637 38.0107C29.9078 38.5929 29.4756 39.1851 29.0995 39.6117C28.9419 39.7923 28.825 39.9429 28.8351 39.958C28.8911 40.0132 30.6195 39.6016 31.5448 39.3105C33.2071 38.7886 35.3016 37.7648 36.8165 36.736L37.2639 36.4298L36.9945 36.3696C35.6321 36.0584 34.0002 35.7674 32.7039 35.6017C32.2564 35.5465 31.8091 35.4913 31.7125 35.4763C31.6438 35.4686 31.6016 35.4637 31.5686 35.4788C31.5163 35.5026 31.4874 35.5765 31.4126 35.7674ZM21.1994 35.3258C21.2147 35.3107 22.1552 35.2555 23.5277 35.1802C24.1988 35.145 28.2606 35.1953 29.0944 35.2505C30.0807 35.3157 30.1874 35.3307 30.1874 35.4111C30.1874 35.5616 29.2418 37.3433 28.8605 37.9104C28.2861 38.7685 27.4422 39.6066 26.8576 39.9028C26.339 40.1637 26.0035 40.239 25.5409 40.2038C25.0681 40.1637 24.7784 40.0633 24.3005 39.7572C23.5684 39.2854 22.8567 38.4624 22.1348 37.2378C21.7993 36.6657 21.1588 35.3659 21.1994 35.3258ZM19.3337 35.4863C19.2524 35.4964 18.7643 35.5616 18.2509 35.6319C17.0308 35.7975 16.075 35.9581 15.0024 36.1839C14.3211 36.3295 14.1381 36.3846 14.1788 36.4349C14.2703 36.5453 15.6074 37.3934 16.2784 37.7597C18.017 38.7183 19.9082 39.426 21.7993 39.8174C22.1908 39.9028 22.5364 39.968 22.5669 39.968C22.5974 39.968 22.5008 39.8275 22.3483 39.6518C21.5248 38.7234 20.747 37.4587 20.1166 36.0283L19.8725 35.4763L19.6794 35.4713C19.5726 35.4663 19.4202 35.4713 19.3337 35.4863ZM14.8753 4.46604C17.2036 2.96044 19.4303 2.05204 22.1552 1.48493C22.2823 1.45484 22.4399 1.43478 22.511 1.4298C22.6279 1.42475 22.6279 1.4298 22.4551 1.61044C21.6722 2.42343 20.7063 3.98424 20.0861 5.41457L19.8725 5.91644L19.6794 5.90135C18.7847 5.83113 16.2174 5.41457 14.9871 5.13852C14.9343 5.12726 14.8822 5.11616 14.832 5.10544C14.5255 5.03989 14.2827 4.98797 14.2653 4.98797C14.1229 4.98797 14.3059 4.83238 14.8753 4.46604ZM24.997 1.28921C23.8226 1.68571 22.7042 2.94038 21.6773 5.01309C21.4434 5.47981 21.2401 5.90641 21.2249 5.95158C21.1994 6.0218 21.2401 6.04194 21.4587 6.06698C22.7194 6.20252 26.0238 6.27274 27.8235 6.19746C29.984 6.10718 30.1874 6.0921 30.1874 5.99676C30.1874 5.87126 29.4249 4.36068 29.0995 3.84878C28.4386 2.79481 27.7828 2.06215 27.1117 1.62552C26.4051 1.17381 25.6883 1.05841 24.997 1.28921ZM30.2179 3.2917C29.9231 2.82498 29.3435 2.03703 28.9927 1.63555C28.9065 1.53884 28.8528 1.47934 28.8661 1.45262C28.8875 1.40997 29.0795 1.4504 29.5825 1.55523C31.9667 2.05204 34.3662 3.05578 36.5319 4.46604C36.9284 4.72203 37.2537 4.95283 37.2537 4.97794C37.2537 5.10345 33.4664 5.76084 31.865 5.91644L31.5346 5.94653L31.3566 5.5099C31.1228 4.92273 30.5788 3.86884 30.2179 3.2917Z" fill="#B3B3B3"/>
<path d="M17.1324 25.3638L16.4267 25.2695L14.0621 24.9105V28.9791L15.7952 28.9938C17.8252 29.0088 18.3413 29.0289 19.22 29.1229L19.2233 29.1233C21.6393 29.3943 24.0177 29.33 25.6586 28.9642L25.6601 28.9639C27.1523 28.6349 28.1726 28.1297 28.9481 27.3993L28.9491 27.3984C29.659 26.7324 30.0438 26.0172 30.2389 24.9686C30.2899 24.6924 30.3102 24.2514 30.292 23.7797C30.2738 23.3078 30.2194 22.8697 30.1479 22.5994C29.9382 21.8066 29.4851 21.0797 28.9766 20.6627L28.9723 20.6592C28.6041 20.352 27.9806 19.9902 27.4972 19.8029C26.4459 19.3962 25.6113 19.2179 23.2953 18.9284C21.9564 18.7638 21.0889 18.6378 20.491 18.4836C19.8598 18.3208 19.4728 18.1125 19.1256 17.767C18.3474 17.0039 18.5001 15.7681 19.405 15.1829C20.1269 14.7068 20.8728 14.6003 22.1807 14.6003H22.1831C23.5403 14.6055 24.8002 14.7974 25.7725 15.1768L25.7749 15.1778L26.08 15.2982L26.4805 15.4564L26.4916 15.8868L26.5056 16.4321H29.5874V12.3134L27.7834 12.2987C25.6548 12.2836 25.1734 12.2638 24.3401 12.1636C23.9282 12.1145 23.1343 12.0699 22.3418 12.0449C21.5431 12.0196 20.8088 12.0163 20.5045 12.0406C17.1549 12.3142 12.598 13.4005 14.2486 19.5264C14.6356 20.9627 14.3924 21.123 16.2174 21.9762C17.3613 22.5082 18.4034 22.744 21.0368 23.0802C23.2279 23.3563 23.9141 23.5119 24.4022 23.8531C24.7377 24.084 24.8496 24.2948 24.8496 24.6862C24.8444 25.69 19.1893 25.3768 16.7795 25.3166M48.6724 14.5052C45.9078 11.4861 40.8037 12.0193 40.5978 12.0395C39.1409 12.1892 37.9892 12.4901 36.9341 12.9805C34.4318 14.1511 32.8742 16.3125 32.4849 19.2158C32.4471 19.5037 32.4218 20.0318 32.4168 20.5832C32.4117 21.1362 32.4277 21.6534 32.4603 21.9224C32.6425 23.4031 33.0941 24.6492 33.8147 25.7302C34.3958 26.5968 35.5062 27.5859 36.5445 28.1426C38.08 28.9677 46.0894 32.1612 50.5359 23.8007C50.86 22.8358 51 21.9141 51 20.6463V20.645C51.0048 18.0249 50.2315 16.0445 48.6724 14.5052ZM1.0072 27.427L1 25.8641H3.2947H3.94558V25.2132V16.1796V15.5332L3.29914 15.5287L1.84232 15.5188L1.84017 15.5187L1.01799 15.5103L1.0072 13.9282V13.9268L1 12.3639H11.4386V15.5287H9.14091H8.49003V16.1796V25.2132V25.8641H9.14091H11.4386V29.0275L1.01799 29.0052L1.0072 27.4284V27.427ZM37.3923 19.1344L37.392 19.136C37.3263 19.6071 37.3082 20.3082 37.3231 20.9627C37.3378 21.6112 37.3865 22.2902 37.4769 22.7064L37.4772 22.708C37.738 23.8952 38.2236 24.8534 39.001 25.4959C39.7856 26.1446 40.7845 26.4033 41.9304 26.3502C42.5042 26.3233 42.9984 26.2464 43.4511 26.0664C43.911 25.8835 44.2872 25.6108 44.6505 25.2496C45.7208 24.1981 46.0842 22.7801 46.0894 20.6478V20.6463C46.0894 18.8858 45.8329 17.6575 45.1311 16.6114C44.619 15.8414 43.8004 15.2871 42.8961 15.07L42.8876 15.068C42.621 15.0077 42.2509 14.9716 41.9101 14.9572C41.5719 14.9429 41.1968 14.9469 40.9225 14.9892C39.9364 15.1385 39.1165 15.5704 38.5075 16.304C37.9093 17.0246 37.5552 17.9869 37.3923 19.1344Z" stroke="#B3B3B3" stroke-width="1.7"/>
</svg>
