<svg width="50" height="50" viewBox="0 0 50 50" fill="none" xmlns="http://www.w3.org/2000/svg">
<path d="M38.3132 22.0772C38.3132 20.4942 37.0255 19.2067 35.4426 19.2067H30.167C31.4487 17.766 32.2864 16.1254 32.4483 14.6537C32.5471 13.7547 32.2694 12.8625 31.6861 12.2055C31.153 11.605 30.4239 11.2703 29.6334 11.263C29.6241 11.2629 29.6149 11.2629 29.6059 11.2629C28.8411 11.2629 28.1234 11.5575 27.5817 12.0941C27.0398 12.631 26.74 13.3461 26.7365 14.1093C26.7087 14.2764 26.4147 14.8525 25.6955 15.5365C25.1067 16.0966 24.0895 16.8667 22.5876 17.3542C21.9987 17.5454 21.4606 17.8975 20.9881 18.4006C20.7402 18.6645 20.3689 19.029 19.9092 19.3948C19.6836 19.2753 19.4271 19.2069 19.1546 19.2069H14.1441C13.2519 19.2069 12.5261 19.9327 12.5261 20.8249V34.186C12.5261 35.0782 13.2519 35.804 14.1441 35.804H19.1546C19.7627 35.804 20.2931 35.4663 20.5695 34.9689H33.3549C34.7075 34.9689 35.8079 33.8685 35.8079 32.5159C35.8079 32.0611 35.6836 31.6349 35.467 31.2693C36.1718 30.8379 36.643 30.0607 36.643 29.1756C36.643 28.7207 36.5186 28.2946 36.3021 27.929C37.0069 27.4975 37.4781 26.7204 37.4781 25.8352C37.4781 25.3233 37.3204 24.8475 37.0511 24.4538C37.8123 23.9368 38.3132 23.0644 38.3132 22.0772ZM35.4426 23.382H35.025C34.5927 23.382 34.2421 23.7325 34.2421 24.1649C34.2421 24.5972 34.5926 24.9478 35.025 24.9478C35.5143 24.9478 35.9124 25.3458 35.9124 25.8351C35.9124 26.3243 35.5143 26.7224 35.025 26.7224H34.1899C33.7576 26.7224 33.4071 27.073 33.4071 27.5054C33.4071 27.9377 33.7575 28.2882 34.1899 28.2882C34.6792 28.2882 35.0773 28.6863 35.0773 29.1756C35.0773 29.6648 34.6792 30.0629 34.1899 30.0629H33.3549C32.9226 30.0629 32.572 30.4133 32.572 30.8457C32.572 31.2781 32.9224 31.6287 33.3549 31.6287C33.8442 31.6287 34.2423 32.0268 34.2423 32.516C34.2423 33.0053 33.8442 33.4033 33.3549 33.4033H20.7725V25.8355C20.7725 25.4031 20.422 25.0525 19.9896 25.0525C19.5571 25.0525 19.2067 25.403 19.2067 25.8355V34.1861C19.2067 34.2149 19.1834 34.2382 19.1546 34.2382H14.1441C14.1153 34.2382 14.092 34.2149 14.092 34.1861V20.8245C14.092 20.7957 14.1153 20.7724 14.1441 20.7724H19.1546C19.1834 20.7724 19.2067 20.7957 19.2067 20.8245V22.4948C19.2067 22.9271 19.5571 23.2777 19.9896 23.2777C20.422 23.2777 20.7725 22.9272 20.7725 22.4948V20.8245C20.7725 20.7866 20.7694 20.7493 20.7667 20.712C21.3537 20.2577 21.8232 19.7983 22.1294 19.4723C22.4192 19.1636 22.7359 18.9521 23.071 18.8434C24.9138 18.2452 26.1539 17.2818 26.8697 16.5792C27.7667 15.6984 28.3022 14.7803 28.3022 14.1229C28.3022 13.7756 28.4376 13.4502 28.6836 13.2064C28.9326 12.9596 29.2624 12.8292 29.6187 12.8288C30.0576 12.8328 30.3483 13.0574 30.5149 13.2451C30.8007 13.5668 30.9413 14.0295 30.8916 14.4826C30.7206 16.0381 29.4766 17.961 27.7222 19.3811C27.4646 19.5898 27.3662 19.9382 27.4769 20.2508C27.5875 20.5634 27.8833 20.7724 28.2148 20.7724H35.4424C36.162 20.7724 36.7472 21.3577 36.7472 22.0772C36.7472 22.7968 36.1621 23.382 35.4426 23.382Z" fill="#B3B3B3"/>
<path d="M16.6493 30.8893C16.217 30.8893 15.8623 31.2439 15.8623 31.6762C15.8623 32.1085 16.217 32.4633 16.6493 32.4633C17.0817 32.4633 17.4363 32.1085 17.4363 31.6762C17.4365 31.244 17.0817 30.8893 16.6493 30.8893Z" fill="#B3B3B3"/>
<path d="M48.6045 25L49.9494 21.4411C50.0473 21.1822 50.0011 20.891 49.828 20.6748L47.4492 17.7057L47.6285 13.9054C47.6416 13.629 47.5076 13.366 47.2763 13.2142L44.0965 11.1254L43.0928 7.45566C43.0197 7.18862 42.8111 6.98001 42.5443 6.90714L38.8745 5.90344L36.7858 2.72362C36.6338 2.49223 36.3709 2.35889 36.0945 2.37149L32.2943 2.55075L29.3251 0.171949C29.1091 -0.00110703 28.8178 -0.0473114 28.5588 0.0505591L24.9999 1.39547L21.4412 0.0506518C21.1821 -0.0473113 20.8909 -0.00110779 20.6749 0.172041L17.7057 2.55084L13.9054 2.37158C13.6278 2.35843 13.3661 2.49241 13.2142 2.72371L11.1256 5.90362L7.45591 6.90733C7.18887 6.98038 6.98026 7.1889 6.9073 7.45584L5.90359 11.1256L2.72377 13.2143C2.49238 13.3662 2.35849 13.6291 2.37155 13.9055L2.5509 17.7058L0.172103 20.6749C-0.000952903 20.891 -0.0471564 21.1823 0.0507141 21.4412L1.39553 25L0.0506223 28.5588C-0.0473408 28.8177 -0.00113733 29.109 0.172011 29.3251L2.55081 32.2942L2.37146 36.0946C2.3584 36.3709 2.49238 36.6339 2.72368 36.7858L5.9035 38.8745L6.9072 42.5442C6.98026 42.8113 7.18887 43.0199 7.45572 43.0928L11.1254 44.0965L13.2142 47.2764C13.3661 47.5077 13.6295 47.6408 13.9054 47.6286L17.7056 47.4492L20.6748 49.828C20.8908 50.0012 21.1822 50.0474 21.4411 49.9494L25 48.6045L28.5589 49.9494C28.6487 49.9833 28.7424 50 28.8356 50C29.0109 50 29.1841 49.9411 29.3251 49.828L32.2943 47.4492L36.0945 47.6286C36.3718 47.6409 36.6338 47.5076 36.7858 47.2764L38.8745 44.0965L42.5443 43.0928C42.8112 43.0198 43.0198 42.8112 43.0928 42.5442L44.0965 38.8745L47.2763 36.7858C47.5077 36.6338 47.6416 36.3709 47.6285 36.0946L47.4492 32.2942L49.828 29.3251C50.001 29.1091 50.0472 28.8178 49.9494 28.5588L48.6045 25ZM47.0352 25.2768L48.3269 28.6947L46.0422 31.5461C45.9231 31.6949 45.8622 31.8821 45.8712 32.0724L46.0434 35.7222L42.9897 37.7281C42.8304 37.8327 42.7146 37.992 42.6643 38.176L41.7003 41.7003L38.1759 42.6643C37.9921 42.7146 37.8329 42.8303 37.7282 42.9897L35.7221 46.0435L32.0724 45.8713C31.882 45.8625 31.6948 45.9231 31.5461 46.0423L28.6946 48.3269L25.2768 47.0352C25.1876 47.0016 25.0937 46.9848 25 46.9848C24.9063 46.9848 24.8124 47.0017 24.7232 47.0352L21.3054 48.3269L18.4539 46.0423C18.3052 45.9231 18.1177 45.8625 17.9276 45.8713L14.2779 46.0435L12.2718 42.9897C12.1673 42.8304 12.008 42.7146 11.8241 42.6643L8.2997 41.7003L7.33572 38.176C7.28544 37.9921 7.1697 37.8329 7.01035 37.7281L3.95655 35.7222L4.12877 32.0724C4.13776 31.882 4.07692 31.6949 3.95776 31.5461L1.67312 28.6947L2.96488 25.2768C3.0322 25.0985 3.0322 24.9016 2.96488 24.7233L1.67312 21.3054L3.95776 18.4539C4.07692 18.3052 4.13776 18.118 4.12877 17.9275L3.95655 14.2778L7.01035 12.2719C7.16961 12.1672 7.28544 12.008 7.33572 11.824L8.2997 8.29964L11.8241 7.33575C12.0079 7.28538 12.1671 7.16973 12.2718 7.01029L14.2779 3.95649L17.9276 4.12881C18.1178 4.13769 18.3052 4.07695 18.4539 3.95769L21.3054 1.67315L24.7232 2.96482C24.9017 3.03223 25.0984 3.03223 25.2768 2.96482L28.6946 1.67315L31.5461 3.95769C31.6948 4.07704 31.8821 4.13779 32.0724 4.12881L35.7221 3.95649L37.7282 7.01029C37.8327 7.16964 37.992 7.28538 38.1759 7.33575L41.7003 8.29964L42.6643 11.824C42.7146 12.0079 42.8303 12.1671 42.9897 12.2719L46.0434 14.2778L45.8712 17.9275C45.8622 18.1181 45.9231 18.3052 46.0422 18.4539L48.3269 21.3054L47.0351 24.7233C46.9679 24.9017 46.9679 25.0985 47.0352 25.2768Z" fill="#B3B3B3"/>
<path d="M39.7104 11.4818C39.5155 11.2698 39.3134 11.0589 39.1094 10.8549C38.9054 10.651 38.6946 10.4489 38.4825 10.2541C38.164 9.96165 37.6688 9.98276 37.3764 10.3013C37.084 10.6198 37.1051 11.1151 37.4236 11.4075C37.6192 11.5871 37.814 11.7737 38.0022 11.9619C38.1903 12.1502 38.377 12.345 38.5568 12.5406C38.7112 12.7089 38.9221 12.7941 39.1338 12.7941C39.3229 12.7941 39.5127 12.7259 39.6629 12.5879C39.9815 12.2956 40.0027 11.8004 39.7104 11.4818Z" fill="#B3B3B3"/>
<path d="M35.7026 8.1175C31.9272 5.71222 27.3818 4.64324 22.9039 5.10685C18.3605 5.5775 14.0763 7.6187 10.8404 10.8545C7.27907 14.4158 5.20564 19.1467 5.00194 24.1757C4.79953 29.1751 6.45536 34.029 9.66463 37.8431C9.81944 38.0271 10.0409 38.1219 10.2642 38.1219C10.4421 38.1219 10.621 38.0615 10.7678 37.9381C11.0985 37.6597 11.1411 37.1659 10.8628 36.835C7.90564 33.3205 6.3799 28.8472 6.56638 24.2392C6.75407 19.6042 8.665 15.244 11.9474 11.9618C14.9298 8.97926 18.8782 7.09796 23.0651 6.66426C27.1935 6.23648 31.3826 7.22176 34.8612 9.43796C35.2259 9.67028 35.7097 9.56306 35.9421 9.19843C36.1745 8.8337 36.0672 8.34981 35.7026 8.1175Z" fill="#B3B3B3"/>
<path d="M41.8469 14.262C41.6146 13.8973 41.1304 13.7901 40.766 14.0224C40.4012 14.2547 40.294 14.7387 40.5264 15.1032C42.7426 18.582 43.7276 22.7713 43.3001 26.8993C42.8664 31.0863 40.985 35.0346 38.0026 38.0172C34.7203 41.2994 30.3602 43.2106 25.7253 43.3982C21.118 43.5856 16.6439 42.0591 13.1295 39.102C12.7986 38.8236 12.3048 38.8662 12.0264 39.197C11.748 39.5278 11.7906 40.0217 12.1214 40.3001C15.727 43.3338 20.2611 44.9794 24.9697 44.9794C25.242 44.9794 25.5155 44.9738 25.7889 44.9628C30.8179 44.7592 35.5487 42.6857 39.11 39.1244C42.3459 35.8885 44.3873 31.6043 44.8577 27.0608C45.3214 22.5827 44.2522 18.0374 41.8469 14.262Z" fill="#B3B3B3"/>
</svg>
