<svg width="46" height="46" viewBox="0 0 46 46" fill="none" xmlns="http://www.w3.org/2000/svg">
<path d="M25.2258 25H23.6129V26.6129H22V28.2259H23.6129V29.8388H25.2258V28.2259H26.8387V26.6129H25.2258V25Z" fill="#B3B3B3"/>
<path d="M46 14.0968V6.67743H42.2903V3.88461L44.2328 0H35.8962L37.8387 3.88461V6.67743H35.9422C35.4274 5.79459 34.4808 5.19358 33.3871 5.19358H21.5161C19.8793 5.19358 18.5484 6.52457 18.5484 8.16128H14.8387V5.19358H3.70964C1.66432 5.19358 0 6.8578 0 8.90321V9.64514H8.16128V11.129H0V11.871C0 13.9163 1.66432 15.5806 3.70964 15.5806H14.8387V12.6129H18.5484C18.5484 14.2497 19.8793 15.5806 21.5161 15.5806H21.9911L19.5352 23.4409C18.9128 24.3784 18.5484 25.5019 18.5484 26.7096C18.5484 29.9824 21.2111 32.6451 24.4839 32.6451C24.7769 32.6451 25.0632 32.6169 25.3454 32.5753L26.5463 38.5806H25.5091L24.0253 41.5484H22.2581V46H46V41.5484H44.2328L42.7489 38.5806H41.5483V32.9672L30.5306 26.3565L33.2237 15.5806H33.3871C34.4808 15.5806 35.4274 14.9796 35.9422 14.0968H37.8387V16.1476L35.8962 20.0323H44.2328L42.2903 16.1476V14.0968H46ZM1.61071 8.16128C1.91714 7.29763 2.74204 6.67743 3.70964 6.67743H13.3549V8.16128H1.61071ZM13.3549 14.0968H3.70964C2.74204 14.0968 1.91714 13.4766 1.61071 12.6129H13.3549V14.0968ZM9.64514 11.129V9.64514H18.5484V11.129H9.64514ZM20.0323 26.7096C20.0323 24.2546 22.0288 22.2581 24.4839 22.2581C26.939 22.2581 28.9355 24.2546 28.9355 26.7096C28.9355 29.1648 26.939 31.1613 24.4839 31.1613C22.0288 31.1613 20.0323 29.1648 20.0323 26.7096ZM30.289 27.9422L35.1894 30.8824L27.2527 34.5453L26.7803 32.1821C28.5489 31.4374 29.8821 29.8593 30.289 27.9422ZM36.6225 31.7424L39.2001 33.2893L27.9968 38.2684L27.5516 36.0418L36.6656 31.8358L36.6225 31.7424ZM44.5161 44.5161H23.7419V43.0323H44.5161V44.5161ZM42.5736 41.5484H25.6845L26.4264 40.0645H41.8317L42.5736 41.5484ZM30.9476 38.5806L40.0645 34.529V38.5806H30.9476ZM29.6434 23.7872C28.6217 21.9911 26.6941 20.7742 24.4839 20.7742C23.48 20.7742 22.5349 21.0263 21.7053 21.4686L23.5452 15.5806H31.6957L29.6434 23.7872ZM34.871 12.6129C34.871 13.4313 34.2055 14.0968 33.3871 14.0968H21.5161C20.6978 14.0968 20.0323 13.4313 20.0323 12.6129V8.16128C20.0323 7.34293 20.6978 6.67743 21.5161 6.67743H33.3871C34.2055 6.67743 34.871 7.34293 34.871 8.16128V12.6129ZM41.8317 1.48385L41.0898 2.96771H39.0393L38.2974 1.48385H41.8317ZM39.3226 4.45165H40.8064V6.67743H39.3226V4.45165ZM44.5161 8.16128V9.64514H36.3549V8.16128H44.5161ZM36.3549 11.129H44.5161V12.6129H36.3549V11.129ZM38.2974 18.5484L39.0393 17.0645H41.0898L41.8317 18.5484H38.2974ZM40.8064 15.5806H39.3226V14.0968H40.8064V15.5806Z" fill="#B3B3B3"/>
<path d="M23.6129 7.87097C22.2793 7.87097 21.1936 8.95664 21.1936 10.2903C21.1936 11.624 22.2793 12.7097 23.6129 12.7097C24.9467 12.7097 26.0323 11.624 26.0323 10.2903C26.0323 8.95664 24.9467 7.87097 23.6129 7.87097ZM23.6129 11.0967C23.168 11.0967 22.8065 10.7345 22.8065 10.2903C22.8065 9.84616 23.168 9.48386 23.6129 9.48386C24.0579 9.48386 24.4194 9.84616 24.4194 10.2903C24.4194 10.7345 24.0579 11.0967 23.6129 11.0967Z" fill="#B3B3B3"/>
<path d="M30.0643 7.87097C28.7306 7.87097 27.645 8.95664 27.645 10.2903C27.645 11.624 28.7306 12.7097 30.0643 12.7097C31.3981 12.7097 32.4837 11.624 32.4837 10.2903C32.4837 8.95664 31.3981 7.87097 30.0643 7.87097ZM30.0643 11.0967C29.6193 11.0967 29.2579 10.7345 29.2579 10.2903C29.2579 9.84616 29.6193 9.48386 30.0643 9.48386C30.5093 9.48386 30.8708 9.84616 30.8708 10.2903C30.8708 10.7345 30.5093 11.0967 30.0643 11.0967Z" fill="#B3B3B3"/>
<path d="M15.6962 33.6348L16.9095 32.1813L13.8187 29.0898L12.3652 30.3038C12.0389 30.1397 11.7016 30.0002 11.3544 29.8856L11.1856 28H6.8145L6.64495 29.8863C6.29772 30.0009 5.96006 30.1404 5.6342 30.3049L4.18071 29.0905L1.08989 32.1821L2.3031 33.6356C2.139 33.9611 1.9995 34.2984 1.88486 34.6456L0 34.8144V39.1855L1.88638 39.3551C2.00022 39.7016 2.14052 40.0399 2.30497 40.3651L1.09132 41.8186L4.18214 44.9101L5.63563 43.6962C5.96194 43.8602 6.29924 43.9998 6.64638 44.1143L6.8145 46H11.1856L11.3551 44.1136C11.7023 43.999 12.0399 43.8595 12.3659 43.695L13.8194 44.9094L16.9102 41.8179L15.6969 40.3644C15.861 40.0388 16.0005 39.7016 16.1151 39.3543L18 39.1855V34.8144L16.1137 34.6449C15.9998 34.2977 15.8596 33.9601 15.6962 33.6348ZM16.5 37.8145L14.9407 37.9547L14.8104 38.4707C14.6686 39.0339 14.446 39.5719 14.1478 40.0688L13.875 40.5259L14.8791 41.7282L13.7282 42.8798L12.5252 41.875L12.0688 42.1478C11.5726 42.4448 11.0346 42.6678 10.47 42.8103L9.95397 42.9407L9.81447 44.5H8.18553L8.04532 42.9407L7.52934 42.8103C6.96464 42.6678 6.42667 42.4448 5.93046 42.1478L5.47485 41.875L4.27184 42.8791L3.12087 41.7274L4.125 40.5259L3.85217 40.0688C3.5552 39.5719 3.33218 39.0339 3.18973 38.4707L3.05935 37.9547L1.49999 37.8145V36.1855L3.05935 36.0452L3.18973 35.5293C3.33146 34.9661 3.55413 34.4281 3.85217 33.9312L4.125 33.4741L3.12087 32.2718L4.27184 31.1201L5.47485 32.125L5.93118 31.8522C6.42738 31.5551 6.96535 31.3321 7.53006 31.1896L8.04603 31.0593L8.18553 29.5H9.81447L9.95477 31.0593L10.4707 31.1896C11.0355 31.3321 11.5734 31.5551 12.0696 31.8522L12.5252 32.125L13.7282 31.1209L14.8791 32.2726L13.875 33.4741L14.1478 33.9312C14.4449 34.4281 14.6679 34.9661 14.8104 35.5293L14.9407 36.0452L16.5 36.1855V37.8145Z" fill="#B3B3B3"/>
<path d="M8.49995 33C6.01819 33 4 35.0182 4 37.5C4 39.9818 6.01819 42 8.49995 42C10.9818 42 13 39.9818 13 37.5C13 35.0182 10.9818 33 8.49995 33ZM8.49995 40.5C6.84544 40.5 5.49999 39.1546 5.49999 37.5C5.49999 35.8454 6.84544 34.5 8.49995 34.5C10.1546 34.5 11.5 35.8454 11.5 37.5C11.5 39.1546 10.1546 40.5 8.49995 40.5Z" fill="#B3B3B3"/>
<path d="M8 17H10V19H8V17Z" fill="#B3B3B3"/>
<path d="M8 20H10V22H8V20Z" fill="#B3B3B3"/>
<path d="M8 23H10V24H8V23Z" fill="#B3B3B3"/>
</svg>
