<svg width="50" height="51" viewBox="0 0 50 51" fill="none" xmlns="http://www.w3.org/2000/svg">
<path d="M24.1935 10.0276H19.3547V14.8663H24.1935V10.0276ZM22.5806 13.2533H20.9677V11.6404H22.5806V13.2533Z" fill="#B3B3B3"/>
<path d="M13.7097 19.7049H14.5161V22.9307H16.1291V18.092H13.7097V19.7049Z" fill="#B3B3B3"/>
<path d="M24.1935 18.092H19.3547V22.9307H24.1935V18.092ZM22.5806 21.3178H20.9677V19.7049H22.5806V21.3178Z" fill="#B3B3B3"/>
<path d="M11.2903 14.8663H16.1291V10.0276H11.2903V14.8663ZM12.9032 11.6404H14.5161V13.2533H12.9032V11.6404Z" fill="#B3B3B3"/>
<path d="M50 15.6726C50 9.00255 44.5734 3.57595 37.9032 3.57595C36.1824 3.57595 34.5475 3.94293 33.0645 4.59302V0.350098H14.1822L7.25802 7.27425V10.0276H2.41934C1.08566 10.0276 0 11.1131 0 12.4469V37.4469C0 38.7806 1.08566 39.8662 2.41934 39.8662H11.2903V43.0921H8.06453V44.7049H32.2581V43.0921H29.0323V39.8662H33.8709V46.3178C33.8709 48.5411 35.68 50.3501 37.9032 50.3501C40.1265 50.3501 41.9355 48.5411 41.9355 46.3178V31.8017H40.3225V27.5261C45.8378 26.4019 50 21.5147 50 15.6726ZM48.3871 15.6726C48.3871 21.4533 43.6839 26.1565 37.9032 26.1565C32.1226 26.1565 27.4193 21.4533 27.4193 15.6726C27.4193 9.89208 32.1226 5.18878 37.9032 5.18878C43.6839 5.18878 48.3871 9.89208 48.3871 15.6726ZM31.4516 5.45736C28.0652 7.60425 25.8064 11.375 25.8064 15.6726C25.8064 19.9704 28.0652 23.7411 31.4516 25.888V28.5759H8.87094V8.41463H15.3225V1.96302H31.4516V5.45736ZM10.0113 6.8017L13.7097 3.1034V6.8017H10.0113ZM27.4193 43.0921H12.9032V39.8662H27.4193V43.0921ZM2.41934 38.2533C1.97443 38.2533 1.61292 37.891 1.61292 37.4469V35.0275H33.8709V38.2533H2.41934ZM33.8709 31.8017V33.4146H1.61292V12.4469C1.61292 12.0027 1.97443 11.6404 2.41934 11.6404H7.25802V30.1888H33.0645V26.7524C33.834 27.0898 34.642 27.3541 35.4839 27.5261V31.8017H33.8709ZM40.3225 46.3178C40.3225 47.6515 39.237 48.7372 37.9032 48.7372C36.5695 48.7372 35.4839 47.6515 35.4839 46.3178V33.4146H40.3225V46.3178ZM38.7097 31.8017H37.0968V27.7285C37.3645 27.7462 37.6308 27.7694 37.9032 27.7694C38.1758 27.7694 38.4419 27.7462 38.7097 27.7285V31.8017Z" fill="#B3B3B3"/>
<path d="M37.9032 24.5436C42.7943 24.5436 46.7741 20.5637 46.7741 15.6726C46.7741 10.7815 42.7943 6.80164 37.9032 6.80164C33.0121 6.80164 29.0322 10.7815 29.0322 15.6726C29.0322 20.5637 33.0121 24.5436 37.9032 24.5436ZM37.9032 8.41456C41.9055 8.41456 45.1613 11.6711 45.1613 15.6726C45.1613 19.6742 41.9055 22.9307 37.9032 22.9307C33.9008 22.9307 30.6451 19.6742 30.6451 15.6726C30.6451 11.6711 33.9008 8.41456 37.9032 8.41456Z" fill="#B3B3B3"/>
<path d="M41.9353 15.6727H43.5483C43.5483 12.5599 41.0151 10.0276 37.9031 10.0276V11.6404C40.1264 11.6404 41.9353 13.4495 41.9353 15.6727Z" fill="#B3B3B3"/>
<path d="M37.0969 45.5115H38.7098V47.1243H37.0969V45.5115Z" fill="#B3B3B3"/>
</svg>
