<svg width="50" height="49" viewBox="0 0 50 49" fill="none" xmlns="http://www.w3.org/2000/svg">
<path fill-rule="evenodd" clip-rule="evenodd" d="M47.8338 30.014L47.8953 30.1198C49.2719 32.4737 50 35.1524 50 37.8634C50 43.5128 45.2952 48.1092 39.513 48.1092H39.2228C35.4783 48.1092 32.2081 46.1206 30.4372 43.1723C29.224 44.3444 27.9387 45.4578 26.5959 46.4845C25.2248 47.5332 23.5127 48.1092 21.7742 48.1092C20.0357 48.1092 18.3235 47.5332 16.9524 46.4861C6.17908 38.2466 0 25.8573 0 12.4928V0.350098L3.82667 2.21898C6.19528 3.37694 8.84778 3.98862 11.4974 3.98862C14.8954 3.98862 18.1854 3.01528 21.0131 1.17418L21.7742 0.677919L22.5354 1.17418C25.3631 3.01528 28.6531 3.98862 32.0509 3.98862C34.6999 3.98862 37.3523 3.37694 39.7217 2.21898L43.5484 0.350098V12.4928C43.5484 16.5218 42.9719 20.48 41.8508 24.3154C42.8676 22.6989 44.3918 21.4037 46.2186 20.6897L47.8563 20.0491L46.9297 24.5762C46.8266 25.0829 46.7742 25.6011 46.7742 26.1166C46.7742 27.4818 47.1404 28.8299 47.8338 30.014ZM22.5806 46.4665C23.6757 46.3245 24.7275 45.9125 25.6017 45.2435C27.0437 44.1414 28.4113 42.9288 29.695 41.6547C29.2732 40.5636 29.0322 39.3872 29.0322 38.1535C29.0322 36.2753 29.6678 34.4126 30.8207 32.9104C31.2283 32.3806 31.4516 31.7244 31.4516 31.0627V28.8953L32.7676 29.323C33.5469 29.577 34.2951 29.9228 34.9929 30.3475C34.6251 27.5315 35.4323 24.6536 37.2736 22.405L38.7096 20.6511V22.8974C38.7096 24.2085 38.9267 25.5199 39.3394 26.769C41.0574 22.188 41.9355 17.3939 41.9355 12.4928V2.8995L40.4434 3.6285C37.8517 4.89457 34.9499 5.56432 32.0509 5.56432C28.7023 5.56432 25.454 4.69103 22.5806 3.04685L21.7742 2.56598L20.9678 3.04685C19.4466 3.91743 17.8211 4.56683 16.1291 4.98765L14.5161 5.31927C13.5234 5.47585 12.5161 5.56432 11.4974 5.56432C10.3469 5.56432 9.19667 5.45469 8.06454 5.24808L6.45157 4.87955C5.29824 4.56602 4.17482 4.15099 3.10574 3.6285L1.61287 2.8995V11.0794L1.61685 12.6551C1.62 13.4469 1.64519 14.2347 1.69287 15.0187L1.82991 16.5945C1.90898 17.3877 2.01065 18.1756 2.13463 18.9581L2.41935 20.5338C2.57722 21.3286 2.75954 22.1165 2.96435 22.8974L3.40139 24.4732C3.64519 25.2702 3.91611 26.0573 4.20787 26.8368L4.83083 28.4125C5.1687 29.2111 5.52824 29.9998 5.91685 30.7761L6.75954 32.3518C7.20565 33.1528 7.67111 33.9441 8.17167 34.7154L9.25805 36.2912C9.83528 37.0964 10.4346 37.888 11.0726 38.6548L12.4547 40.2305C13.2064 41.0464 14.0006 41.8312 14.8232 42.5941L16.6201 44.1698C16.6689 44.2103 16.7176 44.2507 16.7664 44.2913C17.1544 44.6134 17.5427 44.9357 17.9467 45.2442C18.8208 45.9125 19.8727 46.3253 20.9678 46.4672C21.3374 46.4954 22.1774 46.5345 22.5806 46.4665ZM39.2228 46.5334H39.513C44.4057 46.5334 48.3871 42.6437 48.3871 37.8634C48.3871 35.4252 47.7322 33.0181 46.4943 30.9004L46.4331 30.7949C45.6007 29.3742 45.1613 27.7562 45.1613 26.1166C45.1613 25.4972 45.2243 24.8756 45.3475 24.2666L45.6637 22.7232C44.0961 23.6749 42.912 25.1821 42.3993 26.9345C42.0218 28.224 41.1022 29.3065 39.8756 29.9055L39.1546 30.2575L38.6243 29.2207C38.0001 27.9997 37.5591 26.6879 37.3161 25.343C36.4467 27.2503 36.2719 29.4216 36.8711 31.4716L37.9202 35.0589L35.7194 32.9088C34.9558 32.1617 34.0494 31.5551 33.0637 31.1243C33.0499 32.1037 32.7137 33.0719 32.1112 33.8549C31.1661 35.087 30.6452 36.6139 30.6452 38.1535C30.6452 42.7745 34.4928 46.5334 39.2228 46.5334Z" fill="#B3B3B3"/>
<path d="M45.0959 31.6851L45.033 31.5781C44.7002 31.0076 44.4179 30.4056 44.1934 29.7862L43.7063 28.4382L42.7998 29.5604C42.2072 30.2936 41.446 30.9003 40.5974 31.3146L38.9373 32.1248L38.762 36.5204L34.0663 33.8256L33.6461 34.4576C33.5678 34.575 33.4855 34.6907 33.4016 34.8012C32.6644 35.7606 32.2581 36.952 32.2581 38.1534C32.2581 41.9055 35.3823 44.9576 39.2228 44.9576H39.513C41.133 44.9576 42.671 44.4398 43.9594 43.4604L42.9695 42.2175C41.9669 42.9784 40.7719 43.3819 39.513 43.3819H39.2228C36.2719 43.3819 33.8709 41.0364 33.8709 38.1534C33.8709 37.3679 34.1119 36.5897 34.5573 35.9349L40.2702 39.2133L40.5119 33.1173L41.3184 32.7242C41.9863 32.3991 42.6104 31.9782 43.1653 31.4827C43.3097 31.782 43.4661 32.0752 43.6338 32.3618L43.6969 32.4692C44.6549 34.1079 45.1613 35.9726 45.1613 37.8634C45.1613 39.0933 44.749 40.2612 43.9685 41.2403L45.2412 42.2086C46.2434 40.9495 46.7734 39.4472 46.7734 37.8634C46.7742 35.6987 46.1942 33.5624 45.0959 31.6851Z" fill="#B3B3B3"/>
<path d="M22.0262 31.346C27.2726 31.346 31.5256 27.191 31.5256 22.0656C31.5256 16.9402 27.2726 12.7852 22.0262 12.7852C16.7799 12.7852 12.5269 16.9402 12.5269 22.0656C12.5269 27.191 16.7799 31.346 22.0262 31.346Z" fill="#B3B3B3" stroke="white" stroke-width="1.8"/>
<path d="M18.145 21.9963L20.9471 24.774L26.4111 19.3574" fill="#B3B3B3"/>
<path d="M18.145 21.9963L20.9471 24.774L26.4111 19.3574" stroke="white" stroke-width="1.8"/>
</svg>
