<svg width="24" height="24" viewBox="0 0 24 24" fill="none" xmlns="http://www.w3.org/2000/svg">
<path fill-rule="evenodd" clip-rule="evenodd" d="M12 24C18.6274 24 24 18.6274 24 12C24 5.37264 18.6274 0 12 0C5.37264 0 0 5.37264 0 12C0 18.6274 5.37264 24 12 24ZM16.296 7.83024C17.2171 7.91328 17.736 8.47704 17.8498 9.37536C17.9294 10.0022 18 10.8998 18 11.8654C18 13.5607 17.8498 14.5409 17.8498 14.5409C17.7086 15.4356 17.2762 15.9214 16.3666 16.0241C15.3502 16.1393 13.0642 16.1921 12.0485 16.1921C10.9973 16.1921 8.8716 16.1479 7.81008 16.0596C6.89808 15.9835 6.27552 15.474 6.15024 14.5673C6.05904 13.9068 6 13.122 6 11.874C6 10.4849 6.05016 9.89688 6.168 9.26928C6.33576 8.3736 6.7632 7.93968 7.73952 7.83888C8.76384 7.73304 9.732 7.68 11.8985 7.68C12.9576 7.68 15.2412 7.73472 16.296 7.83024ZM10.7242 10.1729V13.6226L14.0088 11.88L10.7242 10.1729Z" fill="#DE1B21"/>
</svg>
