<svg width="24" height="24" viewBox="0 0 24 24" fill="none" xmlns="http://www.w3.org/2000/svg">
<path fill-rule="evenodd" clip-rule="evenodd" d="M12 24C18.6274 24 24 18.6274 24 12C24 5.37259 18.6274 0 12 0C5.37259 0 0 5.37259 0 12C0 18.6274 5.37259 24 12 24ZM17.52 16.56V12.5671C17.52 10.4284 16.3779 9.43306 14.8541 9.43306C13.6245 9.43306 13.0752 10.1098 12.7675 10.5837V9.59669H10.4523C10.4834 10.2503 10.4523 16.56 10.4523 16.56H12.7679V12.6712C12.7679 12.463 12.7836 12.2558 12.8448 12.1069C13.0123 11.6905 13.3929 11.2601 14.0325 11.2601C14.8703 11.2601 15.2052 11.8987 15.2052 12.8345V16.56H17.52ZM12.7675 10.5837V10.6062H12.7523C12.754 10.6036 12.7559 10.6008 12.7578 10.5979C12.7611 10.5932 12.7646 10.5883 12.7675 10.5837ZM6.72 7.44295C6.72 6.75955 7.23799 6.24 8.03018 6.24C8.82257 6.24 9.30943 6.75955 9.3246 7.44295C9.3246 8.11138 8.82257 8.6467 8.01499 8.6467H7.99963C7.22321 8.6467 6.72 8.11138 6.72 7.44295ZM9.17225 16.56H6.85757V9.59669H9.17225V16.56Z" fill="#DE1B21"/>
</svg>
